
<svg xmlns="http://www.w3.org/2000/svg" id="svg" class="path" style="background-color: rgb(233, 109, 187);"><path fill="#e968ad" stroke="#e968ad" d="M -364 958 L -364 0 C -221 0, -221 -141, -78 -141 C 65 -141, 65 141, 208 141 C 351 141, 351 -141, 494 -141 C 637 -141, 637 141, 780 141 C 923 141, 923 -141, 1066 -141 C 1209 -141, 1209 141, 1352 141 C 1495 141, 1495 -141, 1638 -141 C 1781 -141, 1781 141, 1924 141 L 2044 0 L 2044 958 Z"></path><path fill="#e963a0" stroke="#e963a0" d="M -364 958 L -351 21 C -208 21, -208 -120, -65 -120 C 78 -120, 78 162, 221 162 C 364 162, 364 -120, 507 -120 C 650 -120, 650 162, 793 162 C 936 162, 936 -120, 1079 -120 C 1222 -120, 1222 162, 1365 162 C 1508 162, 1508 -120, 1651 -120 C 1794 -120, 1794 162, 1937 162 L 2044 21 L 2044 958 Z"></path><path fill="#e75f92" stroke="#e75f92" d="M -364 958 L -338 42 C -195 42, -195 -99, -52 -99 C 91 -99, 91 183, 234 183 C 377 183, 377 -99, 520 -99 C 663 -99, 663 183, 806 183 C 949 183, 949 -99, 1092 -99 C 1235 -99, 1235 183, 1378 183 C 1521 183, 1521 -99, 1664 -99 C 1807 -99, 1807 183, 1950 183 L 2044 42 L 2044 958 Z"></path><path fill="#e45c86" stroke="#e45c86" d="M -364 958 L -325 63 C -182 63, -182 -78, -39 -78 C 104 -78, 104 204, 247 204 C 390 204, 390 -78, 533 -78 C 676 -78, 676 204, 819 204 C 962 204, 962 -78, 1105 -78 C 1248 -78, 1248 204, 1391 204 C 1534 204, 1534 -78, 1677 -78 C 1820 -78, 1820 204, 1963 204 L 2044 63 L 2044 958 Z"></path><path fill="#e05a79" stroke="#e05a79" d="M -364 958 L -312 84 C -169 84, -169 -57, -26 -57 C 117 -57, 117 225, 260 225 C 403 225, 403 -57, 546 -57 C 689 -57, 689 225, 832 225 C 975 225, 975 -57, 1118 -57 C 1261 -57, 1261 225, 1404 225 C 1547 225, 1547 -57, 1690 -57 L 2044 84 L 2044 958 Z"></path><path fill="#db586d" stroke="#db586d" d="M -364 958 L -299 106 C -156 106, -156 -35, -13 -35 C 130 -35, 130 247, 273 247 C 416 247, 416 -35, 559 -35 C 702 -35, 702 247, 845 247 C 988 247, 988 -35, 1131 -35 C 1274 -35, 1274 247, 1417 247 C 1560 247, 1560 -35, 1703 -35 L 2044 106 L 2044 958 Z"></path><path fill="#d55761" stroke="#d55761" d="M -364 958 L -286 127 C -143 127, -143 -14, 0 -14 C 143 -14, 143 268, 286 268 C 429 268, 429 -14, 572 -14 C 715 -14, 715 268, 858 268 C 1001 268, 1001 -14, 1144 -14 C 1287 -14, 1287 268, 1430 268 C 1573 268, 1573 -14, 1716 -14 L 2044 127 L 2044 958 Z"></path><path fill="#ce5757" stroke="#ce5757" d="M -364 958 L -273 148 C -130 148, -130 7, 13 7 C 156 7, 156 289, 299 289 C 442 289, 442 7, 585 7 C 728 7, 728 289, 871 289 C 1014 289, 1014 7, 1157 7 C 1300 7, 1300 289, 1443 289 C 1586 289, 1586 7, 1729 7 L 2044 148 L 2044 958 Z"></path><path fill="#c7564c" stroke="#c7564c" d="M -364 958 L -260 169 C -117 169, -117 28, 26 28 C 169 28, 169 310, 312 310 C 455 310, 455 28, 598 28 C 741 28, 741 310, 884 310 C 1027 310, 1027 28, 1170 28 C 1313 28, 1313 310, 1456 310 C 1599 310, 1599 28, 1742 28 L 2044 169 L 2044 958 Z"></path><path fill="#bf5742" stroke="#bf5742" d="M -364 958 L -247 190 C -104 190, -104 49, 39 49 C 182 49, 182 331, 325 331 C 468 331, 468 49, 611 49 C 754 49, 754 331, 897 331 C 1040 331, 1040 49, 1183 49 C 1326 49, 1326 331, 1469 331 C 1612 331, 1612 49, 1755 49 L 2044 190 L 2044 958 Z"></path><path fill="#b75739" stroke="#b75739" d="M -364 958 L -234 212 C -91 212, -91 71, 52 71 C 195 71, 195 353, 338 353 C 481 353, 481 71, 624 71 C 767 71, 767 353, 910 353 C 1053 353, 1053 71, 1196 71 C 1339 71, 1339 353, 1482 353 C 1625 353, 1625 71, 1768 71 L 2044 212 L 2044 958 Z"></path><path fill="#ae5730" stroke="#ae5730" d="M -364 958 L -221 233 C -78 233, -78 92, 65 92 C 208 92, 208 374, 351 374 C 494 374, 494 92, 637 92 C 780 92, 780 374, 923 374 C 1066 374, 1066 92, 1209 92 C 1352 92, 1352 374, 1495 374 C 1638 374, 1638 92, 1781 92 L 2044 233 L 2044 958 Z"></path><path fill="#a55828" stroke="#a55828" d="M -364 958 L -208 254 C -65 254, -65 113, 78 113 C 221 113, 221 395, 364 395 C 507 395, 507 113, 650 113 C 793 113, 793 395, 936 395 C 1079 395, 1079 113, 1222 113 C 1365 113, 1365 395, 1508 395 C 1651 395, 1651 113, 1794 113 L 2044 254 L 2044 958 Z"></path><path fill="#9c5821" stroke="#9c5821" d="M -364 958 L -195 275 C -52 275, -52 134, 91 134 C 234 134, 234 416, 377 416 C 520 416, 520 134, 663 134 C 806 134, 806 416, 949 416 C 1092 416, 1092 134, 1235 134 C 1378 134, 1378 416, 1521 416 C 1664 416, 1664 134, 1807 134 L 2044 275 L 2044 958 Z"></path><path fill="#93581a" stroke="#93581a" d="M -364 958 L -182 297 C -39 297, -39 156, 104 156 C 247 156, 247 438, 390 438 C 533 438, 533 156, 676 156 C 819 156, 819 438, 962 438 C 1105 438, 1105 156, 1248 156 C 1391 156, 1391 438, 1534 438 C 1677 438, 1677 156, 1820 156 L 2044 297 L 2044 958 Z"></path><path fill="#895813" stroke="#895813" d="M -364 958 L -169 318 C -26 318, -26 177, 117 177 C 260 177, 260 459, 403 459 C 546 459, 546 177, 689 177 C 832 177, 832 459, 975 459 C 1118 459, 1118 177, 1261 177 C 1404 177, 1404 459, 1547 459 C 1690 459, 1690 177, 1833 177 L 2044 318 L 2044 958 Z"></path><path fill="#7f580d" stroke="#7f580d" d="M -364 958 L -156 339 C -13 339, -13 198, 130 198 C 273 198, 273 480, 416 480 C 559 480, 559 198, 702 198 C 845 198, 845 480, 988 480 C 1131 480, 1131 198, 1274 198 C 1417 198, 1417 480, 1560 480 C 1703 480, 1703 198, 1846 198 L 2044 339 L 2044 958 Z"></path><path fill="#765707" stroke="#765707" d="M -364 958 L -143 360 C 0 360, 0 219, 143 219 C 286 219, 286 501, 429 501 C 572 501, 572 219, 715 219 C 858 219, 858 501, 1001 501 C 1144 501, 1144 219, 1287 219 C 1430 219, 1430 501, 1573 501 C 1716 501, 1716 219, 1859 219 L 2044 360 L 2044 958 Z"></path><path fill="#6c5704" stroke="#6c5704" d="M -364 958 L -130 381 C 13 381, 13 240, 156 240 C 299 240, 299 522, 442 522 C 585 522, 585 240, 728 240 C 871 240, 871 522, 1014 522 C 1157 522, 1157 240, 1300 240 C 1443 240, 1443 522, 1586 522 C 1729 522, 1729 240, 1872 240 L 2044 381 L 2044 958 Z"></path><path fill="#625602" stroke="#625602" d="M -364 958 L -117 403 C 26 403, 26 262, 169 262 C 312 262, 312 544, 455 544 C 598 544, 598 262, 741 262 C 884 262, 884 544, 1027 544 C 1170 544, 1170 262, 1313 262 C 1456 262, 1456 544, 1599 544 C 1742 544, 1742 262, 1885 262 L 2044 403 L 2044 958 Z"></path><path fill="#595501" stroke="#595501" d="M -364 958 L -104 424 C 39 424, 39 283, 182 283 C 325 283, 325 565, 468 565 C 611 565, 611 283, 754 283 C 897 283, 897 565, 1040 565 C 1183 565, 1183 283, 1326 283 C 1469 283, 1469 565, 1612 565 C 1755 565, 1755 283, 1898 283 L 2044 424 L 2044 958 Z"></path><path fill="#4f5302" stroke="#4f5302" d="M -364 958 L -91 445 C 52 445, 52 304, 195 304 C 338 304, 338 586, 481 586 C 624 586, 624 304, 767 304 C 910 304, 910 586, 1053 586 C 1196 586, 1196 304, 1339 304 C 1482 304, 1482 586, 1625 586 C 1768 586, 1768 304, 1911 304 L 2044 445 L 2044 958 Z"></path><path fill="#465204" stroke="#465204" d="M -364 958 L -78 466 C 65 466, 65 325, 208 325 C 351 325, 351 607, 494 607 C 637 607, 637 325, 780 325 C 923 325, 923 607, 1066 607 C 1209 607, 1209 325, 1352 325 C 1495 325, 1495 607, 1638 607 C 1781 607, 1781 325, 1924 325 L 2044 466 L 2044 958 Z"></path><path fill="#3d5007" stroke="#3d5007" d="M -364 958 L -65 487 C 78 487, 78 346, 221 346 C 364 346, 364 628, 507 628 C 650 628, 650 346, 793 346 C 936 346, 936 628, 1079 628 C 1222 628, 1222 346, 1365 346 C 1508 346, 1508 628, 1651 628 C 1794 628, 1794 346, 1937 346 L 2044 487 L 2044 958 Z"></path><path fill="#334e0a" stroke="#334e0a" d="M -364 958 L -52 509 C 91 509, 91 368, 234 368 C 377 368, 377 650, 520 650 C 663 650, 663 368, 806 368 C 949 368, 949 650, 1092 650 C 1235 650, 1235 368, 1378 368 C 1521 368, 1521 650, 1664 650 C 1807 650, 1807 368, 1950 368 L 2044 509 L 2044 958 Z"></path><path fill="#2a4b0e" stroke="#2a4b0e" d="M -364 958 L -39 530 C 104 530, 104 389, 247 389 C 390 389, 390 671, 533 671 C 676 671, 676 389, 819 389 C 962 389, 962 671, 1105 671 C 1248 671, 1248 389, 1391 389 C 1534 389, 1534 671, 1677 671 C 1820 671, 1820 389, 1963 389 L 2044 530 L 2044 958 Z"></path><path fill="#204912" stroke="#204912" d="M -364 958 L -26 551 C 117 551, 117 410, 260 410 C 403 410, 403 692, 546 692 C 689 692, 689 410, 832 410 C 975 410, 975 692, 1118 692 C 1261 692, 1261 410, 1404 410 C 1547 410, 1547 692, 1690 692 L 2044 551 L 2044 958 Z"></path><path fill="#144715" stroke="#144715" d="M -364 958 L -13 572 C 130 572, 130 431, 273 431 C 416 431, 416 713, 559 713 C 702 713, 702 431, 845 431 C 988 431, 988 713, 1131 713 C 1274 713, 1274 431, 1417 431 C 1560 431, 1560 713, 1703 713 L 2044 572 L 2044 958 Z"></path><path fill="#044418" stroke="#044418" d="M -364 958 L 0 594 C 143 594, 143 453, 286 453 C 429 453, 429 735, 572 735 C 715 735, 715 453, 858 453 C 1001 453, 1001 735, 1144 735 C 1287 735, 1287 453, 1430 453 C 1573 453, 1573 735, 1716 735 L 2044 594 L 2044 958 Z"></path></svg>
